<?xml version="1.0" encoding="iso-8859-1"?>
<!-- Generator: Adobe Illustrator 24.1.2, SVG Export Plug-In . SVG Version: 6.00 Build 0)  -->
<svg version="1.1" id="Layer_1" xmlns="http://www.w3.org/2000/svg" xmlns:xlink="http://www.w3.org/1999/xlink" x="0px" y="0px"
	 viewBox="0 0 100 100" style="enable-background:new 0 0 100 100;" xml:space="preserve">
<path style="opacity:0.35;fill:#1D1D1B;" d="M70.25,8c-3.584,0-6.5,2.916-6.5,6.5c0,2.205,0.998,4.555,0.998,4.555l-0.576-0.576
	c-2.172-2.172-5.06-3.368-8.197-3.368c-3.097,0.018-5.994,1.246-8.158,3.46l-37.009,37.85C6.426,60.904,6.467,68.159,10.9,72.592
	l20.928,20.929c2.172,2.172,5.06,3.368,8.131,3.368h0.052h0.014c3.097-0.018,5.994-1.246,8.158-3.46l37.009-37.85
	c4.382-4.483,4.341-11.738-0.092-16.171l-0.156-0.156c0,0,2.241,0.998,4.556,0.998c3.584,0,6.5-2.916,6.5-6.5
	C96,19.552,84.449,8,70.25,8z"/>
<path style="fill:#F2F2F2;" d="M68.25,6c-3.584,0-6.5,2.916-6.5,6.5c0,2.205,0.998,4.555,0.998,4.555l-0.576-0.576
	c-2.172-2.172-5.06-3.368-8.197-3.368c-3.097,0.018-5.994,1.246-8.158,3.46L8.808,54.421C4.426,58.904,4.467,66.159,8.9,70.592
	l20.928,20.929c2.172,2.172,5.06,3.368,8.131,3.368h0.052h0.014c3.097-0.018,5.994-1.246,8.158-3.46l37.009-37.85
	c4.382-4.483,4.341-11.738-0.092-16.171l-0.156-0.156c0,0,2.241,0.998,4.556,0.998c3.584,0,6.5-2.916,6.5-6.5
	C94,17.552,82.449,6,68.25,6z"/>
<path style="fill:#707CC0;" d="M78.504,42.004L57.575,21.075c-1.968-1.968-5.165-1.95-7.111,0.04L13.457,58.965
	c-1.915,1.959-1.898,5.094,0.039,7.031l20.928,20.928c1.968,1.968,5.165,1.95,7.111-0.04l37.008-37.849
	C80.459,47.076,80.441,43.941,78.504,42.004z"/>
<path style="fill:#40396E;" d="M37.959,89.889c-1.736,0-3.367-0.675-4.595-1.903L12.436,67.057
	c-2.506-2.506-2.529-6.606-0.052-9.141l37.008-37.85c1.223-1.251,2.861-1.945,4.611-1.955c0.013,0,0.025,0,0.038,0
	c1.736,0,3.367,0.675,4.595,1.903l20.928,20.929c0,0,0,0,0,0c2.505,2.506,2.528,6.606,0.051,9.141l-37.008,37.85
	c-1.223,1.251-2.861,1.945-4.611,1.955C37.984,89.889,37.972,89.889,37.959,89.889z M54.041,21.111c-0.007,0-0.014,0-0.021,0
	c-0.942,0.005-1.824,0.379-2.482,1.053l-37.009,37.85c-1.333,1.364-1.321,3.572,0.028,4.922l20.928,20.929
	c0.667,0.666,1.545,1.025,2.495,1.024c0.942-0.005,1.824-0.379,2.482-1.053l37.009-37.85c1.333-1.364,1.321-3.572-0.028-4.922
	L56.515,22.136C55.854,21.475,54.975,21.111,54.041,21.111z"/>
<path style="fill:#40396E;" d="M79.5,33.25c-0.829,0-1.5-0.672-1.5-1.5c0-5.376-4.374-9.75-9.75-9.75c-0.829,0-1.5-0.672-1.5-1.5
	s0.671-1.5,1.5-1.5C75.28,19,81,24.72,81,31.75C81,32.578,80.329,33.25,79.5,33.25z"/>
<path style="fill:#40396E;" d="M87.5,33.25c-0.829,0-1.5-0.672-1.5-1.5C86,21.963,78.038,14,68.25,14c-0.829,0-1.5-0.672-1.5-1.5
	s0.671-1.5,1.5-1.5C79.691,11,89,20.309,89,31.75C89,32.578,88.329,33.25,87.5,33.25z"/>
<circle style="fill:#D9EEFF;" cx="55" cy="45" r="12"/>
<circle style="fill:#707CC0;" cx="55" cy="45" r="5"/>
<circle style="fill:#9AA2E6;" cx="36.5" cy="54.5" r="3.5"/>
<circle style="fill:#9AA2E6;" cx="45.5" cy="63.5" r="3.5"/>
<circle style="fill:#9AA2E6;" cx="28.5" cy="62.5" r="3.5"/>
<circle style="fill:#9AA2E6;" cx="37.5" cy="71.5" r="3.5"/>
</svg>