<svg xmlns="http://www.w3.org/2000/svg" xmlns:xlink="http://www.w3.org/1999/xlink" viewBox="0,0,256,256" width="240px" height="240px" fill-rule="nonzero"><defs><linearGradient x1="41.004" y1="12.883" x2="11.426" y2="42.462" gradientUnits="userSpaceOnUse" id="color-1"><stop offset="0" stop-color="#6066fe"></stop><stop offset="0.033" stop-color="#6e73c3" stop-opacity="0.21961"></stop><stop offset="0.197" stop-color="#a997fe"></stop><stop offset="0.362" stop-color="#bdcfff"></stop><stop offset="0.525" stop-color="#e4daff"></stop><stop offset="0.687" stop-color="#eef1ff"></stop><stop offset="0.846" stop-color="#fbfbff"></stop><stop offset="1" stop-color="#ffffff"></stop></linearGradient></defs><g fill="none" fill-rule="nonzero" stroke="none" stroke-width="none" stroke-linecap="none" stroke-linejoin="none" stroke-miterlimit="10" stroke-dasharray="" stroke-dashoffset="0" font-family="none" font-weight="none" font-size="none" text-anchor="none" style="mix-blend-mode: normal"><g transform="scale(5.33333,5.33333)"><path d="M37,9.5h-3c-0.828,0 -1.5,0.672 -1.5,1.5v3.016l-7.956,-7.154c-0.301,-0.301 -0.904,-0.301 -1.305,0l-13.195,11.952c-0.42,0.381 -0.66,0.921 -0.66,1.488v19.29c0,1.104 0.904,2.008 2.008,2.008h25.1c1.104,0 2.008,-0.904 2.008,-2.008v-28.592c0,-0.828 -0.672,-1.5 -1.5,-1.5z" fill="url(#color-1)" stroke="none" stroke-width="1" stroke-linecap="butt" stroke-linejoin="miter"></path><path d="M19.5,10.405l3.8,-3.405c0.4,-0.3 1,-0.3 1.3,0l18.4,16.4" fill="none" stroke="#517cfe" stroke-width="3" stroke-linecap="round" stroke-linejoin="round"></path><path d="M5,23.4l8.961,-8.031" fill="none" stroke="#517cfe" stroke-width="3" stroke-linecap="round" stroke-linejoin="round"></path><path d="M19.5,41.5v-12.1c0,-0.6 0.4,-1 1,-1h3.5" fill="none" stroke="#517cfe" stroke-width="3" stroke-linecap="round" stroke-linejoin="round"></path><path d="M38.5,26.717v-7.217" fill="none" stroke="#517cfe" stroke-width="3" stroke-linecap="round" stroke-linejoin="round"></path><path d="M9.5,19.5v20.1c0,1.1 0.9,2 2,2h11.957" fill="none" stroke="#517cfe" stroke-width="3" stroke-linecap="round" stroke-linejoin="round"></path><path d="M32.5,14v-3.5c0,-0.6 0.4,-1 1,-1h4c0.6,0 1,0.4 1,1v7.9" fill="none" stroke="#517cfe" stroke-width="3" stroke-linecap="round" stroke-linejoin="round"></path><circle cx="36" cy="46" r="2" fill="#517cfe" stroke="none" stroke-width="1" stroke-linecap="butt" stroke-linejoin="miter"></circle><path d="M40.438,39.952c0.303,0.223 0.592,0.471 0.866,0.745" fill="none" stroke="#517cfe" stroke-width="3" stroke-linecap="round" stroke-linejoin="miter"></path><path d="M30.697,40.697c1.373,-1.373 3.145,-2.102 4.942,-2.188" fill="none" stroke="#517cfe" stroke-width="3" stroke-linecap="round" stroke-linejoin="miter"></path><path d="M34.061,31.629c4.327,-0.581 8.866,0.792 12.192,4.118" fill="none" stroke="#517cfe" stroke-width="3" stroke-linecap="round" stroke-linejoin="miter"></path><path d="M25.747,35.747c0.82,-0.82 1.714,-1.521 2.66,-2.104" fill="none" stroke="#517cfe" stroke-width="3" stroke-linecap="round" stroke-linejoin="miter"></path></g></g></svg>