<?xml version="1.0" encoding="iso-8859-1"?>
<!-- Generator: Adobe Illustrator 25.4.1, SVG Export Plug-In . SVG Version: 6.00 Build 0)  -->
<svg version="1.1" id="Layer_1" xmlns="http://www.w3.org/2000/svg" xmlns:xlink="http://www.w3.org/1999/xlink" x="0px" y="0px"
	 viewBox="0 0 100 100" style="enable-background:new 0 0 100 100;" xml:space="preserve">
<g style="opacity:0.35;">
	<path d="M93,32.5v-15c0-3.584-2.916-6.5-6.5-6.5h-69c-3.584,0-6.5,2.916-6.5,6.5v15c0,2.7,1.656,5.019,4.004,6
		C12.656,39.481,11,41.8,11,44.5v15c0,2.7,1.656,5.019,4.004,6C12.656,66.481,11,68.8,11,71.5v15c0,3.584,2.916,6.5,6.5,6.5h69
		c3.584,0,6.5-2.916,6.5-6.5v-15c0-2.7-1.655-5.019-4.004-6c2.349-0.981,4.004-3.3,4.004-6v-15c0-2.7-1.655-5.019-4.004-6
		C91.345,37.519,93,35.2,93,32.5z"/>
</g>
<g>
	<path style="fill:#F2F2F2;" d="M91,30.5v-15c0-3.584-2.916-6.5-6.5-6.5h-69C11.916,9,9,11.916,9,15.5v15c0,2.7,1.656,5.019,4.004,6
		C10.656,37.481,9,39.8,9,42.5v15c0,2.7,1.656,5.019,4.004,6C10.656,64.481,9,66.8,9,69.5v15c0,3.584,2.916,6.5,6.5,6.5h69
		c3.584,0,6.5-2.916,6.5-6.5v-15c0-2.7-1.655-5.019-4.004-6c2.349-0.981,4.004-3.3,4.004-6v-15c0-2.7-1.655-5.019-4.004-6
		C89.345,35.519,91,33.2,91,30.5z"/>
</g>
<g>
	<rect x="15.5" y="42.5" style="fill:#D9EEFF;" width="69" height="15"/>
</g>
<g>
	<rect x="15.5" y="15.5" style="fill:#D9EEFF;" width="69" height="15"/>
</g>
<g>
	<rect x="15.5" y="69.5" style="fill:#D9EEFF;" width="69" height="15"/>
</g>
<g>
	<rect x="15.5" y="42.5" style="fill:#96C362;" width="42.5" height="15"/>
</g>
<g>
	<rect x="15.5" y="15.5" style="fill:#96C362;" width="25.5" height="15"/>
</g>
<g>
	<path style="fill:#40396E;" d="M84.5,59h-69c-0.829,0-1.5-0.672-1.5-1.5v-15c0-0.828,0.671-1.5,1.5-1.5h69
		c0.829,0,1.5,0.672,1.5,1.5v15C86,58.328,85.329,59,84.5,59z M17,56h66V44H17V56z"/>
</g>
<g>
	<rect x="15.5" y="69.5" style="fill:#96C362;" width="33.5" height="15"/>
</g>
<g>
	<path style="fill:#40396E;" d="M84.5,32h-69c-0.829,0-1.5-0.672-1.5-1.5v-15c0-0.828,0.671-1.5,1.5-1.5h69
		c0.829,0,1.5,0.672,1.5,1.5v15C86,31.328,85.329,32,84.5,32z M17,29h66V17H17V29z"/>
</g>
<g>
	<path style="fill:#40396E;" d="M84.5,86h-69c-0.829,0-1.5-0.672-1.5-1.5v-15c0-0.828,0.671-1.5,1.5-1.5h69
		c0.829,0,1.5,0.672,1.5,1.5v15C86,85.328,85.329,86,84.5,86z M17,83h66V71H17V83z"/>
</g>
</svg>