<?xml version="1.0" encoding="utf-8"?>
<!-- Generator: Adobe Illustrator 25.4.1, SVG Export Plug-In . SVG Version: 6.00 Build 0)  -->
<svg version="1.1" baseProfile="basic" id="Layer_1"
	 xmlns="http://www.w3.org/2000/svg" xmlns:xlink="http://www.w3.org/1999/xlink" x="0px" y="0px" viewBox="0 0 100 100"
	 xml:space="preserve">
<path opacity="0.35" d="M80.4433594,99.5908203c-3.2045898,0-6.2788086-1.359375-8.4350586-3.7304688L71.2006836,95H22.5
	c-3.5839844,0-6.5-2.9160156-6.5-6.5v-73c0-3.5839844,2.9160156-6.5,6.5-6.5h41
	c1.7802734,0,3.5019531,0.7421875,4.7236328,2.0351562L86.21875,30.0302734C87.3662109,31.2392578,88,32.828125,88,34.5v45.1464844
	l0.1484375,0.1367188c2.3041992,2.1044922,3.621582,5,3.6938477,8.1396484
	c0.0712891,3.1503906-1.1142578,6.1083984-3.3388672,8.3310547C86.3476562,98.40625,83.4853516,99.5908203,80.4433594,99.5908203z"
	/>
<path fill="#F2F2F2" d="M78.4433594,97.5908203c-3.2045898,0-6.2788086-1.359375-8.4350586-3.7304688L69.2006836,93H20.5
	c-3.5839844,0-6.5-2.9160156-6.5-6.5v-73C14,9.9160156,16.9160156,7,20.5,7h41c1.7802734,0,3.5019531,0.7421875,4.7236328,2.0351562
	L84.21875,28.0302734C85.3662109,29.2392578,86,30.828125,86,32.5v45.1464844l0.1484375,0.1367188
	c2.3041992,2.1044922,3.621582,5,3.6938477,8.1396484c0.0712891,3.1503906-1.1142578,6.1083984-3.3388672,8.3310547
	C84.3476562,96.40625,81.4853516,97.5908203,78.4433594,97.5908203z"/>
<path fill="#D9EEFF" d="M20,87V13h40l20,21v53H20z"/>
<path fill="#40396E" d="M61,15v16c0,1.1049995,0.8950005,2,2,2h16l-1-2.6529999l-15-15.5L61,15z"/>
<path fill="#70BFFF" d="M66.5,43.9375h-17c-0.8279991,0-1.5-0.6720009-1.5-1.5l0,0c0-0.8279991,0.6720009-1.5,1.5-1.5h17
	c0.8280029,0,1.5,0.6720009,1.5,1.5l0,0C68,43.2654991,67.3280029,43.9375,66.5,43.9375z"/>
<path fill="#70BFFF" d="M66.5,52.9375h-33c-0.8279991,0-1.5-0.6720009-1.5-1.5l0,0c0-0.8279991,0.6720009-1.5,1.5-1.5h33
	c0.8280029,0,1.5,0.6720009,1.5,1.5l0,0C68,52.2654991,67.3280029,52.9375,66.5,52.9375z"/>
<path fill="#70BFFF" d="M41.5,43.9375h-8c-0.8279991,0-1.5-0.6720009-1.5-1.5l0,0c0-0.8279991,0.6720009-1.5,1.5-1.5h8
	c0.8279991,0,1.5,0.6720009,1.5,1.5l0,0C43,43.2654991,42.3279991,43.9375,41.5,43.9375z"/>
<path fill="#70BFFF" d="M60.2234039,61.9375H33.5c-0.8279991,0-1.5-0.6719971-1.5-1.5l0,0c0-0.8279991,0.6720009-1.5,1.5-1.5
	h26.7234039c0.8279991,0,1.5,0.6720009,1.5,1.5l0,0C61.7234039,61.2655029,61.051403,61.9375,60.2234039,61.9375z"/>
<path fill="#70BFFF" d="M57.25,70.9375H33.5c-0.8279991,0-1.5-0.6719971-1.5-1.5l0,0c0-0.8280029,0.6720009-1.5,1.5-1.5h23.75
	c0.8279991,0,1.5,0.6719971,1.5,1.5l0,0C58.75,70.2655029,58.0779991,70.9375,57.25,70.9375z"/>
<path fill="#2B59A1" d="M59.8527184,55.1326904c6.8881874,0,12.4721794,5.5839844,12.4721794,12.472168
	c0,2.3807373-0.6790848,4.5975342-1.8364944,6.4901123l10.2659988,9.6385498
	c0.6890182,0.6286621,1.0803146,1.4887695,1.10186,2.4210205c0.0212402,0.9355469-0.3308716,1.8145752-0.991272,2.4743652
	c-0.6401291,0.6394043-1.4904175,0.9915771-2.3940353,0.9915771c-0.9514847,0-1.8641434-0.4034424-2.5046463-1.107666
	l-9.727356-10.2093506c-1.869812,1.1186523-4.048954,1.7734375-6.3862343,1.7734375
	c-6.8881187,0-12.4721069-5.5839844-12.4721069-12.4720459C47.3806114,60.7166748,52.9645996,55.1326904,59.8527184,55.1326904
	 M59.8527184,52.1326904c-8.531353,0-15.4721069,6.9407959-15.4721069,15.472168s6.9407539,15.4720459,15.4721069,15.4720459
	c1.9656944,0,3.9112854-0.3798828,5.7323494-1.1107178l8.1895142,8.5953369c1.2060928,1.309082,2.915329,2.05896,4.696373,2.05896
	c1.704361,0,3.3075256-0.6638184,4.5141602-1.8690186c1.2462463-1.2451172,1.9104156-2.9018555,1.870369-4.6650391
	c-0.0406876-1.7607422-0.7790222-3.3829346-2.0790482-4.5690918l-8.6034393-8.0778809
	c0.7579346-1.8497314,1.1519012-3.8299561,1.1519012-5.8345947C75.3248978,59.0734863,68.3841095,52.1326904,59.8527184,52.1326904
	L59.8527184,52.1326904z"/>
<path fill="#707CC0" d="M80.7543716,83.7335129L69.4740906,73.1426468l-4.1752396,4.1742325l10.6674347,11.1959534
	c0.6405029,0.7042542,1.5531921,1.1076431,2.5046692,1.1076431c0.9035873,0,1.7538834-0.3521194,2.3940506-0.9916153
	c0.6604004-0.659729,1.0125275-1.5386887,0.991272-2.4743195C81.8346939,85.22229,81.4434433,84.3622131,80.7543716,83.7335129z"/>
<path fill="none" stroke="#40396E" stroke-width="3" stroke-linecap="round" stroke-linejoin="round" stroke-miterlimit="10" d="
	M81.7490234,82.5683594L79.5,80.4975586V32.5l-18-19h-41v73h51.5133667l2.8040161,2.9873047
	c0.9272461,1.0195312,2.2485352,1.6035156,3.6259766,1.6035156c1.3081055,0,2.5390625-0.5097656,3.4658203-1.4355469
	c0.9560547-0.9550781,1.4658203-2.2275391,1.4350586-3.5820312C83.3129883,84.7236328,82.746582,83.4785156,81.7490234,82.5683594z"
	/>
<g>
	<circle fill="#70BFFF" cx="59.8527451" cy="67.6048431" r="12.472127"/>
</g>
<path fill="#2785BD" d="M61.0229645,58.933918H50.8889313c-1.0956421,1.1474609-1.9730225,2.5008545-2.5695801,4h12.7036133
	c0.9268799,0,1.6790771-0.8959961,1.6790771-2S61.9498444,58.933918,61.0229645,58.933918z"/>
<path fill="#2785BD" d="M59.0374756,67.9375H47.3973999c0.0371704,1.4046631,0.3076782,2.7480469,0.7722778,4h10.8677979
	c0.9268188,0,1.6790161-0.8959961,1.6790161-2S59.9642944,67.9375,59.0374756,67.9375z"/>
<g>
	<path fill="#D9EEFF" d="M50.1010246,69.3933716c-0.4628181,0-0.8374252-0.3751602-0.8374252-0.8374176
		c0-3.2162628,1.2527847-6.2399178,3.5266685-8.5132408c0.8290482-0.829052,1.7658463-1.5291367,2.7841492-2.0818329
		c0.4069901-0.2205238,0.9150238-0.0692291,1.1349869,0.3372002c0.2205238,0.4064293,0.0697861,0.9150238-0.3372002,1.1349869
		c-0.875946,0.4756584-1.6832199,1.0791588-2.3978233,1.7937622c-1.9578934,1.9578934-3.0359344,4.5606003-3.0359344,7.3291245
		C50.938446,69.0182114,50.563839,69.3933716,50.1010246,69.3933716z"/>
</g>
</svg>